<svg data-v-423bf9ae="" xmlns="http://www.w3.org/2000/svg" viewBox="0 0 209.7841853543062 60" class="font"><!----><!----><!----><g data-v-423bf9ae="" id="d81350f3-e4de-4229-9a86-a5d6bb10298d" fill="white" transform="matrix(6.166495665241285,0,0,6.166495665241285,-1.726622312475115,-23.12435874465482)"><path d="M0.28 4.66L2.59 4.66L2.59 13.27L3.57 13.27L3.57 4.66L5.88 4.66L5.88 3.75L3.57 3.75L2.59 3.75L0.28 3.75ZM11.66 10.08C11.66 9.23 11.34 8.50 10.69 7.88C10.05 7.28 9.30 6.97 8.44 6.97C7.56 6.97 6.80 7.29 6.17 7.92C5.54 8.55 5.22 9.31 5.22 10.19C5.22 11.08 5.54 11.84 6.17 12.46C6.46 12.75 6.80 12.98 7.19 13.15C7.58 13.31 8.04 13.40 8.59 13.40C9.14 13.40 9.67 13.23 10.20 12.89C10.73 12.55 11.12 12.08 11.38 11.49L10.26 11.49C10.05 11.78 9.78 12.01 9.46 12.17C9.14 12.34 8.80 12.42 8.44 12.42C7.92 12.42 7.44 12.25 7.01 11.90C6.60 11.56 6.34 11.13 6.24 10.60L11.66 10.60ZM10.63 9.76L6.26 9.76C6.31 9.50 6.41 9.26 6.55 9.04C7.01 8.31 7.64 7.95 8.44 7.95C8.97 7.95 9.43 8.12 9.84 8.46C10.25 8.80 10.51 9.23 10.63 9.76ZM14.16 12.42C13.92 12.26 13.74 11.98 13.64 11.58L12.60 11.58C12.81 12.85 13.63 13.48 15.06 13.48C15.40 13.48 15.71 13.44 15.99 13.36C16.28 13.28 16.55 13.17 16.78 13.01C17.26 12.69 17.50 12.20 17.50 11.54C17.50 10.88 17.18 10.39 16.55 10.09C16.27 9.96 15.98 9.86 15.66 9.79C15.35 9.72 15.06 9.64 14.79 9.56C14.52 9.47 14.29 9.37 14.11 9.24C13.92 9.11 13.83 8.91 13.83 8.63C13.83 8.35 13.94 8.15 14.17 8.01C14.38 7.88 14.65 7.81 14.95 7.81C15.26 7.81 15.51 7.87 15.73 7.98C15.94 8.09 16.10 8.32 16.21 8.67L17.26 8.67C17.12 8.04 16.86 7.61 16.47 7.37C16.07 7.12 15.57 7.00 14.98 7.00C14.38 7.00 13.87 7.16 13.44 7.47C13.01 7.79 12.79 8.25 12.79 8.86C12.79 9.17 12.87 9.43 13.03 9.66C13.19 9.88 13.43 10.07 13.74 10.22C14.02 10.34 14.31 10.44 14.62 10.52C14.94 10.59 15.23 10.68 15.50 10.76C16.14 10.97 16.46 11.27 16.46 11.66C16.46 12.33 16.01 12.67 15.12 12.67C14.73 12.67 14.41 12.59 14.16 12.42ZM18.13 8.05L19.67 8.05L19.67 13.30L20.65 13.30L20.65 8.05L22.18 8.05L22.18 7.14L20.65 7.14L20.65 4.75L19.67 4.75L19.67 7.14L18.13 7.14ZM29.53 10.08C29.53 9.23 29.20 8.50 28.55 7.88C27.92 7.28 27.17 6.97 26.31 6.97C25.42 6.97 24.66 7.29 24.03 7.92C23.40 8.55 23.09 9.31 23.09 10.19C23.09 11.08 23.40 11.84 24.03 12.46C24.33 12.75 24.67 12.98 25.05 13.15C25.44 13.31 25.91 13.40 26.45 13.40C27.00 13.40 27.54 13.23 28.06 12.89C28.59 12.55 28.98 12.08 29.25 11.49L28.13 11.49C27.91 11.78 27.64 12.01 27.32 12.17C27.00 12.34 26.66 12.42 26.31 12.42C25.78 12.42 25.30 12.25 24.88 11.90C24.46 11.56 24.20 11.13 24.11 10.60L29.53 10.60ZM28.49 9.76L24.12 9.76C24.18 9.50 24.28 9.26 24.42 9.04C24.88 8.31 25.51 7.95 26.31 7.95C26.83 7.95 27.29 8.12 27.70 8.46C28.11 8.80 28.38 9.23 28.49 9.76ZM34.30 8.41L34.30 7.14C34.10 7.06 33.90 7.01 33.68 7.01C32.99 7.01 32.49 7.40 32.16 8.16L32.12 8.41L32.12 7.14L31.14 7.14L31.14 13.30L32.12 13.30L32.12 10.22C32.12 9.71 32.23 9.26 32.47 8.86C32.59 8.64 32.74 8.47 32.92 8.32C33.10 8.18 33.32 8.11 33.58 8.11C33.83 8.11 34.07 8.21 34.30 8.41Z"></path></g><!----><!----></svg>